<?xml version="1.0" encoding="UTF-8" standalone="no"?>
<!-- Created with Inkscape (http://www.inkscape.org/) -->

<svg
   width="456.23846mm"
   height="500.00586mm"
   viewBox="0 0 456.23846 500.00586"
   version="1.1"
   id="svg5"
   inkscape:version="1.2.2 (b0a8486541, 2022-12-01)"
   sodipodi:docname="logo.svg"
   xmlns:inkscape="http://www.inkscape.org/namespaces/inkscape"
   xmlns:sodipodi="http://sodipodi.sourceforge.net/DTD/sodipodi-0.dtd"
   xmlns="http://www.w3.org/2000/svg"
   xmlns:svg="http://www.w3.org/2000/svg">
  <defs
     id="defs7" />
  <sodipodi:namedview
     id="namedview5"
     pagecolor="#505050"
     bordercolor="#eeeeee"
     borderopacity="1"
     inkscape:showpageshadow="0"
     inkscape:pageopacity="0"
     inkscape:pagecheckerboard="0"
     inkscape:deskcolor="#505050"
     inkscape:document-units="mm"
     showgrid="false" />
  <path
     d="M 0.00643174,87.906062 V 383.61606 c -0.33,32.78 12.05000026,64.41 34.54000026,88.26 25.86,26.82 66.709998,45.21 124.039998,3.76 l 255.66,-148.66 c 13.15,-7.47 24.12,-18.24 31.81,-31.26 13.71,-23.82 20.53,-62.95 -26.09,-113.29 -5.95,-6.38 -12.82,-11.83 -20.39,-16.17 L 131.59643,11.826062 C 113.34643,1.1860623 91.846432,-2.4339377 71.106432,1.6160623 c -2.71,0.54 -5.49,1.21 -8.3,2 C 25.416432,14.556062 -0.20356826,48.946062 0.00643174,87.906062 Z M 74.776432,137.80606 v 0 c 10.02,0 18.14,8.12 18.14,18.14 v 187.98 c 0,10.02 -8.12,18.14 -18.14,18.14 v 0 c -10.02,0 -18.14,-8.12 -18.14,-18.14 v -187.98 c 0,-10.01 8.12,-18.14 18.14,-18.14 z m 124.659998,69.26 v 0 c 10.02,0 18.14,8.12 18.14,18.14 v 49.46 c 0,10.02 -8.12,18.14 -18.14,18.14 v 0 c -10.02,0 -18.14,-8.12 -18.14,-18.14 v -49.46 c 0.01,-10.02 8.13,-18.14 18.14,-18.14 z m 52.77,23.08 v 0 c 10.02,0 18.14,8.12 18.14,18.14 v 3.29 c 0,10.02 -8.12,18.14 -18.14,18.14 v 0 c -10.02,0 -18.14,-8.12 -18.14,-18.14 v -3.29 c 0,-10.01 8.12,-18.14 18.14,-18.14 z m 52.76,-49.46 v 0 c 10.02,0 18.14,8.12 18.14,18.14 v 102.23 c 0,10.02 -8.12,18.14 -18.14,18.14 v 0 c -10.02,0 -18.14,-8.12 -18.14,-18.14 v -102.23 c 0,-10.02 8.12,-18.14 18.14,-18.14 z m 56.07,24.73 v 0 c 10.02,0 18.14,8.12 18.14,18.14 v 52.76 c 0,10.02 -8.12,18.14 -18.14,18.14 v 0 c -10.02,0 -18.14,-8.12 -18.14,-18.14 v -52.76 c 0,-10.02 8.12,-18.14 18.14,-18.14 z m -223.61,-115.419998 v 0 c 10.02,0 18.14,8.12 18.14,18.139998 v 283.61 c 0,10.02 -8.12,18.14 -18.14,18.14 v 0 c -10.02,0 -18.14,-8.12 -18.14,-18.14 v -283.61 c 0.01,-10.019998 8.13,-18.139998 18.14,-18.139998 z"
     style="fill:#840c96"
     id="path2"
     inkscape:export-filename="path2.svg"
     inkscape:export-xdpi="96"
     inkscape:export-ydpi="96" />
  <path
     style="fill:#ffffff;stroke-width:0.702958"
     d="m 71.156141,361.27053 c -5.633132,-1.35853 -10.257525,-5.0919 -12.545295,-10.12806 -1.22406,-2.69457 -1.285139,-7.44474 -1.299853,-101.08848 -0.01714,-109.16977 -0.39175,-100.81829 4.763855,-106.20796 1.430975,-1.49594 3.867097,-3.3079 5.413608,-4.02657 3.391804,-1.5762 10.613331,-1.76819 13.957133,-0.37106 3.642823,1.52207 7.559376,5.38676 9.345022,9.22128 l 1.639139,3.51991 v 97.71124 97.71125 l -1.639139,3.51991 c -3.526118,7.57203 -12.042378,11.96954 -19.63447,10.13854 z"
     id="path283" />
  <path
     style="fill:#ffffff;stroke-width:0.702958"
     d="m 134.97247,409.36003 c -6.32317,-1.4873 -11.50062,-5.4016 -13.79836,-10.43199 -1.23049,-2.69388 -1.28502,-8.91251 -1.29981,-148.24269 -0.0116,-109.47108 0.18898,-146.11313 0.81126,-148.19012 1.08139,-3.609358 5.76252,-8.869441 9.33899,-10.494025 3.79518,-1.723922 11.02138,-1.723922 14.81655,0 3.57648,1.624584 8.25761,6.884667 9.339,10.494025 1.09402,3.6515 1.19381,290.86511 0.10243,294.79449 -0.93994,3.38412 -6.30287,9.2896 -9.63894,10.61407 -3.10814,1.23399 -7.68562,1.92323 -9.67112,1.45624 z"
     id="path285" />
  <path
     style="fill:#ffffff;stroke-width:0.702958"
     d="m 193.14875,291.30636 c -4.18381,-1.54135 -8.84006,-6.28943 -10.26294,-10.46535 -1.70525,-5.00465 -1.75121,-56.74082 -0.0548,-61.71944 1.29805,-3.80954 5.16558,-8.06232 9.11135,-10.01892 4.37974,-2.17179 11.69814,-1.92305 15.88801,0.54002 3.68118,2.16403 6.40996,5.1267 8.18414,8.88563 1.07583,2.27937 1.20415,5.62251 1.20415,31.37253 0,31.83058 0.0864,31.14396 -4.59048,36.47063 -1.2683,1.44452 -3.59197,3.28245 -5.16371,4.0843 -3.73494,1.90542 -10.38072,2.30031 -14.31569,0.8506 z"
     id="path287" />
  <path
     style="fill:#ffffff;stroke-width:0.702958"
     d="m 246.12955,268.20012 c -6.95698,-2.47986 -11.15926,-8.64325 -11.58049,-16.98484 -0.34139,-6.76043 1.2329,-11.47928 5.12974,-15.37612 7.16889,-7.16888 18.97533,-6.83756 25.60981,0.71868 3.47269,3.95519 4.5419,6.9824 4.58849,12.99151 0.0498,6.41953 -1.0645,9.84159 -4.41492,13.55841 -4.88635,5.42073 -12.66405,7.46943 -19.33263,5.09236 z"
     id="path289" />
  <path
     style="fill:#ffffff;stroke-width:0.702958"
     d="m 300.31781,318.15051 c -5.72686,-1.55366 -10.94036,-6.75129 -12.47005,-12.43205 -0.46795,-1.73789 -0.65112,-21.72227 -0.52573,-57.3607 l 0.19246,-54.69361 1.91934,-3.26497 c 3.87305,-6.58835 8.8179,-9.26963 16.42605,-8.90679 4.07207,0.19421 5.62266,0.62872 8.43549,2.36382 4.31366,2.66089 7.75224,8.09559 8.36618,13.22284 0.23807,1.98808 0.33565,27.18137 0.21685,55.9851 -0.20439,49.55699 -0.28654,52.50259 -1.52915,54.83077 -2.37827,4.45593 -4.44717,6.68962 -7.9165,8.54707 -4.29651,2.30029 -8.78049,2.88441 -13.11494,1.70852 z"
     id="path291" />
  <path
     style="fill:#ffffff;stroke-width:0.702958"
     d="m 354.74339,292.87331 c -3.71832,-1.34562 -7.84376,-5.25828 -9.66245,-9.16411 l -1.66751,-3.58114 0.008,-30.22723 c 0.008,-28.8963 0.0716,-30.3665 1.44047,-33.39053 3.79862,-8.3917 12.85925,-12.41756 21.87064,-9.71769 3.62209,1.08521 8.51591,5.45647 10.34971,9.24459 1.41618,2.92543 1.46478,4.04941 1.46478,33.86363 0,29.69285 -0.0537,30.94875 -1.44698,33.82686 -1.67198,3.45387 -6.09221,7.69641 -9.50391,9.12191 -2.84662,1.18941 -9.59773,1.20184 -12.85332,0.0238 z"
     id="path293" />
  <path
     style="fill:#ffffff;stroke-width:0.702958"
     d="m 132.08005,408.02585 c -3.52217,-1.29993 -8.31286,-5.28918 -9.955,-8.28966 -1.13434,-2.07262 -1.2235,-11.54793 -1.39567,-148.32393 -0.12022,-95.50757 0.0588,-147.01144 0.51704,-148.71306 0.89858,-3.337056 5.02737,-8.161538 8.50139,-9.933852 3.70278,-1.889016 11.63488,-1.909865 15.26983,-0.04013 2.78712,1.433626 5.47391,4.049866 7.61354,7.413612 1.26077,1.98208 1.34389,5.2282 1.81793,70.99881 0.27321,37.90697 0.31136,104.19271 0.0848,147.30164 -0.44914,85.45406 -0.13832,79.69088 -4.57013,84.73845 -4.37812,4.98641 -11.94841,7.03863 -17.88371,4.84812 z"
     id="path295" />
  <path
     style="fill:#ffffff;stroke-width:0.702958"
     d="m 192.96656,290.60911 c -2.94033,-1.27008 -7.42457,-5.45486 -8.93763,-8.34081 -1.61103,-3.07281 -2.50082,-22.14959 -1.98512,-42.56037 0.23932,-9.47236 0.75861,-18.43739 1.15396,-19.92229 0.90211,-3.3882 5.72029,-8.7069 9.41731,-10.3956 7.72769,-3.52979 18.1535,0.24285 22.34976,8.08738 1.5285,2.85741 1.55083,3.32426 1.55083,32.42341 0,27.46432 -0.092,29.70947 -1.31904,32.17883 -1.72824,3.47808 -6.67805,7.78211 -10.144,8.82052 -3.75099,1.12381 -9.10918,0.99478 -12.08607,-0.29107 z"
     id="path297" />
  <path
     style="fill:#ffffff;stroke-width:0.702958"
     d="m 244.63401,267.10196 c -6.53536,-3.1871 -9.8014,-9.75833 -9.38647,-18.88546 0.20884,-4.59402 0.58399,-5.99902 2.37547,-8.89663 6.90947,-11.17567 22.84931,-10.65635 29.6821,0.96703 1.72283,2.93074 1.93191,3.97355 1.92741,9.61393 -0.006,6.97152 -1.17634,10.1953 -5.02703,13.84199 -4.92582,4.66486 -13.77836,6.18429 -19.57148,3.35914 z"
     id="path299" />
  <path
     style="fill:#ffffff;stroke-width:0.702958"
     d="m 299.6391,317.47829 c -3.71094,-1.38332 -7.28586,-4.27866 -9.51508,-7.70626 l -1.90659,-2.93155 -0.18801,-56.44205 -0.18801,-56.44205 1.74625,-2.97972 c 3.74885,-6.39695 8.13572,-8.91133 15.54771,-8.91133 7.38719,0 12.30836,3.26213 15.55273,10.30953 l 1.67177,3.63143 -0.20021,55.12712 -0.20021,55.12713 -2.53119,3.81169 c -4.3567,6.56074 -13.18932,9.86631 -19.78916,7.40606 z"
     id="path301" />
  <path
     style="fill:#ffffff;stroke-width:0.702958"
     d="m 354.29556,292.15647 c -3.4398,-1.50267 -6.63345,-4.60595 -8.47008,-8.23034 l -1.72284,-3.39987 v -30.62464 c 0,-33.41242 -0.0455,-32.99763 4.13809,-37.7624 4.43587,-5.05217 13.06264,-7.11374 19.14075,-4.57414 3.60783,1.50745 7.33846,5.04315 9.04856,8.57577 1.4513,2.99797 1.49273,3.92946 1.49273,33.56264 0,20.86248 -0.24934,31.13487 -0.79026,32.55756 -1.25121,3.291 -4.12549,6.63226 -7.60166,8.8368 -2.77524,1.75998 -3.87877,2.0312 -8.16761,2.00742 -2.72735,-0.0151 -5.9078,-0.4421 -7.06768,-0.9488 z"
     id="path303" />
  <path
     style="fill:#ffffff;stroke-width:0.702958"
     d="m 68.191414,359.70108 c -3.870145,-1.86548 -6.889922,-4.59989 -8.676513,-7.85665 -1.065898,-1.94299 -1.181426,-10.33864 -1.359265,-98.78028 -0.122727,-61.03467 0.06113,-98.31914 0.498874,-101.16737 0.582917,-3.79282 1.117211,-4.94885 3.357669,-7.26489 4.092477,-4.23054 7.018424,-5.44703 13.10137,-5.44703 4.721121,0 5.547476,0.21864 8.634798,2.28461 2.146602,1.43647 4.263848,3.7084 5.703113,6.11979 l 2.289066,3.83518 v 98.29293 98.29293 l -1.722837,3.39985 c -2.92309,5.76844 -7.97102,9.16318 -14.383456,9.67287 -3.141853,0.24974 -4.631494,-0.0268 -7.442819,-1.38194 z"
     id="path305" />
</svg>
